<?xml version="1.0" standalone="no"?>
<!DOCTYPE svg PUBLIC "-//W3C//DTD SVG 20010904//EN"
 "http://www.w3.org/TR/2001/REC-SVG-20010904/DTD/svg10.dtd">
<svg version="1.0" xmlns="http://www.w3.org/2000/svg"
 width="1280.000000pt" height="1280.000000pt" viewBox="0 0 1280.000000 1280.000000"
 preserveAspectRatio="xMidYMid meet">
<metadata>
Created by potrace 1.14, written by Peter Selinger 2001-2017
</metadata>
<g transform="translate(0.000000,1280.000000) scale(0.100000,-0.100000)"
fill="#000000" stroke="none">
<path d="M8755 11434 c-152 -22 -350 -96 -471 -177 -84 -55 -222 -188 -249
-240 -14 -26 -24 -35 -35 -31 -53 22 -199 69 -280 89 -249 64 -471 85 -875 85
l-282 0 -24 37 c-65 100 -140 110 -461 63 -247 -37 -517 -130 -646 -222 l-48
-35 -149 5 c-208 6 -339 -14 -543 -85 -40 -14 -74 -24 -76 -22 -2 2 -15 23
-29 46 -35 55 -158 180 -227 231 -70 50 -127 81 -215 115 -103 39 -157 48
-285 48 -276 0 -583 -122 -773 -305 -58 -56 -132 -163 -157 -225 -12 -29 -15
-31 -21 -15 -7 18 -8 18 -8 -1 -1 -13 -4 -16 -9 -8 -5 8 -16 -1 -32 -27 -14
-22 -28 -40 -32 -40 -5 0 -8 -7 -8 -15 0 -8 -4 -15 -10 -15 -5 0 -10 -4 -10
-10 0 -5 -13 -39 -30 -73 -16 -35 -30 -73 -30 -84 0 -11 -3 -23 -7 -27 -17
-17 -33 -111 -39 -231 -5 -104 -3 -143 10 -193 9 -35 16 -72 16 -83 0 -10 5
-19 10 -19 6 0 10 -15 10 -34 0 -18 7 -39 15 -46 8 -7 15 -21 15 -31 0 -21 16
-26 22 -7 3 7 5 -2 5 -20 0 -19 5 -37 12 -41 7 -5 13 -15 15 -24 9 -64 272
-323 306 -302 5 3 10 0 10 -7 0 -7 25 -25 55 -39 l55 -26 -33 -36 c-17 -20
-57 -50 -87 -66 -70 -37 -210 -81 -259 -81 -20 0 -41 -4 -46 -8 -6 -5 -37 -17
-69 -28 -76 -25 -134 -76 -146 -129 -5 -22 -7 -48 -4 -57 3 -10 -3 -21 -16
-28 -11 -6 -20 -8 -20 -5 0 6 -54 -22 -86 -45 -36 -26 -57 -78 -52 -130 7 -74
43 -133 139 -229 84 -85 105 -120 79 -136 -5 -3 -10 -15 -10 -25 0 -11 -7 -36
-16 -57 -26 -59 -32 -76 -38 -103 -3 -14 -14 -61 -26 -105 -40 -156 -57 -268
-66 -451 -7 -130 5 -290 28 -364 22 -74 42 -127 71 -189 l29 -63 -17 -82 c-57
-279 -35 -526 67 -746 17 -36 30 -67 29 -69 -2 -2 1 -7 6 -10 4 -3 26 -33 48
-66 51 -76 172 -204 247 -260 169 -127 382 -193 655 -202 124 -5 166 -2 230
12 43 10 86 22 95 27 13 6 33 -13 99 -99 161 -209 453 -473 634 -574 33 -18
62 -36 65 -39 3 -3 20 -12 38 -19 17 -8 32 -16 32 -20 0 -3 -25 -28 -55 -54
-126 -111 -168 -223 -127 -337 11 -30 23 -62 26 -70 4 -10 -15 -31 -64 -68
-79 -61 -153 -139 -180 -191 -10 -20 -43 -58 -74 -84 -68 -58 -105 -112 -137
-197 -22 -60 -24 -79 -24 -245 0 -99 2 -217 5 -263 l4 -83 -84 -82 c-123 -120
-306 -318 -391 -422 -40 -49 -93 -112 -118 -138 -64 -68 -157 -200 -197 -282
-19 -38 -48 -124 -64 -190 -18 -73 -35 -124 -46 -132 -9 -6 -33 -27 -53 -45
-100 -91 -144 -127 -153 -122 -4 3 -7 2 -6 -3 1 -4 -72 -82 -162 -173 -91 -91
-185 -192 -210 -225 -24 -33 -69 -87 -100 -121 -94 -103 -105 -117 -162 -200
-80 -118 -118 -216 -125 -324 -8 -116 8 -193 62 -306 54 -111 106 -167 180
-190 49 -16 65 -16 231 0 99 9 231 23 294 31 63 9 149 20 190 25 41 5 118 16
170 25 130 20 441 61 660 85 52 5 154 17 225 25 126 14 590 53 885 74 80 6
224 13 320 17 96 3 182 8 190 11 8 3 692 10 1520 15 828 5 1537 11 1575 13
350 14 429 15 520 5 55 -7 101 -13 103 -15 2 -2 -1 -13 -7 -24 -13 -24 4 -76
35 -102 30 -27 214 -91 275 -96 67 -6 144 16 183 52 28 26 76 118 76 147 0 11
13 21 38 27 44 12 105 71 127 123 18 44 20 164 4 240 -14 61 -66 200 -116 308
-19 41 -44 95 -55 120 -11 25 -24 52 -29 60 -4 8 -38 71 -75 140 -207 388
-360 627 -466 731 -77 74 -72 57 -68 264 2 136 -8 200 -43 270 -20 40 -105
158 -148 206 -13 14 -40 43 -59 65 -111 125 -274 299 -410 437 -328 335 -350
359 -350 397 0 19 -5 52 -11 73 -19 71 -137 302 -201 395 -16 23 -26 47 -22
54 4 6 3 9 -2 6 -5 -3 -32 25 -60 62 l-52 67 71 69 c181 177 150 331 -90 451
l-72 36 42 36 c82 70 240 227 319 318 44 51 84 90 88 88 4 -3 7 3 6 13 0 10 6
17 16 16 10 -1 14 4 11 12 -5 12 8 19 29 15 5 0 7 3 5 7 -1 4 32 37 73 72 41
35 80 69 86 76 9 11 21 10 68 -6 144 -51 379 -48 538 6 39 13 81 22 92 18 15
-4 17 -3 8 4 -10 7 -5 12 19 22 101 42 239 157 319 264 47 64 47 82 0 42 -116
-97 -357 -176 -540 -176 -80 0 -221 23 -273 45 -23 9 -38 11 -42 5 -4 -6 -52
-47 -107 -91 -56 -44 -134 -117 -173 -162 -167 -191 -380 -390 -543 -508 -31
-23 -75 -59 -97 -80 -36 -33 -233 -149 -254 -149 -5 0 -44 -18 -87 -39 -169
-84 -421 -166 -569 -186 -65 -8 -171 -43 -190 -62 -21 -20 -19 -59 5 -83 16
-16 33 -20 86 -20 96 0 158 -42 138 -94 -25 -65 -320 -105 -644 -86 -270 15
-445 51 -494 99 -24 25 -16 78 19 120 37 44 33 69 -12 76 -21 3 -58 10 -83 16
-25 6 -94 21 -155 34 -171 36 -231 54 -355 102 -63 25 -140 54 -170 66 -113
41 -360 200 -515 330 -138 116 -253 242 -410 450 l-20 27 -55 -19 c-83 -29
-239 -41 -367 -29 -126 11 -305 55 -398 97 -247 112 -452 339 -543 601 -43
125 -56 208 -56 370 -1 119 3 163 22 243 13 53 25 97 28 97 2 0 10 -15 18 -33
17 -41 74 -108 90 -105 6 1 33 -8 59 -21 66 -32 120 -25 163 22 17 18 33 40
36 47 3 10 8 10 27 0 15 -7 39 -10 66 -6 31 5 45 3 55 -9 20 -24 88 -19 144
11 39 21 50 23 57 12 5 -7 9 -18 9 -24 0 -23 72 -199 93 -229 33 -46 66 -73
104 -86 105 -34 211 54 373 314 76 123 81 126 95 57 12 -56 42 -107 81 -137
29 -22 47 -27 88 -27 105 0 227 85 441 305 149 153 264 297 404 504 125 184
175 272 279 480 l75 150 47 -190 c93 -373 174 -532 282 -558 108 -27 219 105
268 318 13 52 25 95 29 95 3 0 21 -26 40 -57 155 -256 545 -641 740 -731 103
-47 183 -35 224 36 15 25 48 173 50 220 0 16 7 15 50 -3 58 -24 120 -20 157
11 34 30 60 73 60 103 0 11 5 23 10 26 6 4 54 -12 108 -33 456 -187 828 -211
1017 -66 40 30 106 64 125 64 4 0 41 -56 83 -124 42 -68 93 -138 113 -156 32
-28 42 -31 83 -28 25 3 53 8 62 12 18 8 49 -36 140 -194 30 -52 75 -116 100
-142 42 -45 49 -48 95 -48 50 0 82 15 116 55 67 76 138 266 168 448 12 67 30
172 42 232 18 98 20 133 15 320 -6 218 -22 333 -72 535 -13 52 -33 140 -44
195 -19 95 -58 196 -81 210 -20 12 -9 30 29 48 47 22 73 58 73 103 0 47 -29
82 -111 134 -110 69 -212 148 -201 155 5 3 10 1 10 -5 0 -8 9 -10 27 -5 22 5
25 4 15 -8 -12 -14 -7 -27 10 -27 5 0 6 5 3 10 -3 6 2 14 13 18 11 4 41 27 67
51 37 34 44 46 34 53 -10 7 -8 8 9 5 18 -4 22 -2 18 9 -3 8 1 14 9 14 8 0 15
3 15 8 0 4 40 48 89 97 83 85 190 231 205 283 4 12 12 22 17 22 5 0 8 3 7 8
-1 4 10 43 24 87 41 128 51 208 45 356 -5 137 -22 233 -56 312 -11 25 -17 47
-15 50 2 2 -2 10 -11 17 -8 7 -15 19 -15 26 0 30 -136 213 -213 287 -98 95
-198 162 -322 217 -155 67 -226 82 -420 85 -93 2 -183 1 -200 -1z m-5854 -700
c-5 -16 -10 -21 -10 -12 -1 18 10 51 15 45 2 -1 -1 -16 -5 -33z m-45 -62 c-11
-10 -15 4 -8 28 l7 25 3 -23 c2 -13 1 -26 -2 -30z m24 -34 c0 -18 -2 -20 -9
-8 -6 8 -7 18 -5 22 9 14 14 9 14 -14z m-36 -36 c-8 -51 -11 -50 -15 1 -3 32
-1 43 8 40 8 -3 11 -17 7 -41z m-27 -34 c-3 -7 -5 -2 -5 12 0 14 2 19 5 13 2
-7 2 -19 0 -25z m46 -35 c-3 -38 -10 -75 -15 -83 -5 -10 -7 -3 -4 20 3 19 8
56 11 83 9 71 15 57 8 -20z m-23 -15 c0 -18 -2 -20 -9 -8 -6 8 -7 18 -5 22 9
14 14 9 14 -14z m-13 -80 c-3 -8 -6 -5 -6 6 -1 11 2 17 5 13 3 -3 4 -12 1 -19z
m-4 -155 c-8 -52 -13 -54 -13 -5 0 23 4 42 9 42 6 0 7 -17 4 -37z m-87 1 c10
4 14 -2 14 -19 0 -15 -5 -24 -12 -22 -8 1 -15 -15 -19 -43 -5 -35 -6 -27 -6
35 -1 44 1 72 4 62 3 -11 11 -16 19 -13z m92 -169 l0 -30 -8 30 c-4 17 -8 50
-8 75 l1 45 8 -45 c4 -25 7 -58 7 -75z m-111 -27 c-3 -7 -5 -2 -5 12 0 14 2
19 5 13 2 -7 2 -19 0 -25z m120 -55 c-3 -10 -5 -2 -5 17 0 19 2 27 5 18 2 -10
2 -26 0 -35z m-77 -37 c0 -3 -4 -8 -10 -11 -5 -3 -10 -1 -10 4 0 6 5 11 10 11
6 0 10 -2 10 -4z m97 -38 c-3 -7 -5 -2 -5 12 0 14 2 19 5 13 2 -7 2 -19 0 -25z
m-80 -30 c-3 -7 -5 -2 -5 12 0 14 2 19 5 13 2 -7 2 -19 0 -25z m126 -44 c10
-10 9 -24 -1 -24 -5 0 -14 17 -20 39 -15 49 -14 66 1 24 7 -17 15 -35 20 -39z
m27 -62 c0 -15 -2 -15 -10 -2 -13 20 -13 33 0 25 6 -3 10 -14 10 -23z m60 -80
c0 -8 -1 -13 -3 -11 -1 2 -9 12 -16 22 -12 15 -12 17 3 11 9 -3 16 -13 16 -22z
m-15 -31 c3 -5 1 -12 -5 -16 -5 -3 -10 1 -10 9 0 18 6 21 15 7z m75 -32 c0 -6
-4 -7 -10 -4 -5 3 -10 11 -10 16 0 6 5 7 10 4 6 -3 10 -11 10 -16z m50 -44 c0
-12 -29 -3 -34 10 -4 13 -2 14 14 5 11 -6 20 -13 20 -15z m-63 -41 c-3 -3 -12
-4 -19 -1 -8 3 -5 6 6 6 11 1 17 -2 13 -5z m243 -60 c0 -2 -12 -4 -26 -4 -14
0 -23 4 -20 9 6 8 46 4 46 -5z m6266 -1 c-4 -5 -13 -8 -19 -8 -7 0 -11 -9 -9
-19 3 -15 1 -16 -11 -5 -12 12 -12 15 2 26 17 13 49 18 37 6z m-6338 -10 c-10
-2 -26 -2 -35 0 -10 3 -2 5 17 5 19 0 27 -2 18 -5z m6262 -34 c-12 -8 -9 -10
9 -5 22 5 23 4 8 -11 -13 -13 -19 -14 -31 -4 -10 8 -16 9 -21 1 -7 -12 -25
-14 -25 -2 0 8 63 39 70 34 2 -2 -2 -8 -10 -13z m-2160 -4846 c61 -11 119 -14
203 -10 115 6 118 6 112 -14 -14 -44 32 -99 82 -99 9 0 58 20 110 45 l95 45
19 -23 c28 -32 139 -201 188 -285 78 -135 114 -222 114 -282 1 -54 -43 -216
-83 -305 -88 -197 -92 -213 -64 -253 21 -31 83 -31 110 1 27 30 87 158 125
266 l30 87 183 -186 c100 -102 216 -221 257 -265 40 -44 77 -82 80 -85 16 -14
219 -244 271 -307 97 -120 102 -136 103 -353 0 -209 6 -230 81 -301 69 -64
108 -112 175 -214 84 -128 179 -288 179 -302 0 -6 -17 -23 -37 -39 -21 -15
-40 -30 -43 -34 -43 -47 -472 -401 -565 -465 -38 -26 -107 -74 -152 -106 -44
-33 -86 -59 -91 -59 -6 0 -25 -12 -43 -28 l-33 -27 -1305 -7 c-1454 -7 -1716
-15 -2416 -73 -427 -36 -1203 -122 -1266 -141 -30 -8 -555 -75 -725 -91 -209
-20 -204 -22 -266 103 -38 77 -42 95 -46 174 -3 68 0 99 14 137 61 165 229
369 522 636 35 31 72 63 82 70 55 38 253 229 299 289 34 43 69 127 86 206 33
158 90 267 225 426 83 99 85 101 239 259 213 219 299 295 320 282 6 -3 27 1
46 11 54 25 52 3 25 424 -12 188 -1 291 38 363 67 124 331 297 526 346 80 20
105 39 106 79 0 23 9 28 26 13 15 -14 169 -41 232 -41 116 0 221 30 251 72 13
19 15 18 50 -16 20 -19 61 -46 91 -60 59 -27 212 -61 323 -72 65 -7 67 -7 51
-25 -15 -17 -16 -39 -11 -202 6 -169 39 -631 53 -739 7 -59 38 -91 84 -86 22
2 40 12 53 29 19 26 19 28 -2 285 -12 143 -28 357 -35 476 -8 146 -17 222 -25
232 -12 14 4 16 160 16 l174 0 -3 -1103 -2 -1104 21 -26 c26 -34 79 -37 109
-7 20 20 20 34 21 1018 1 548 3 1051 5 1117 l3 119 63 12 c141 26 245 98 268
185 9 32 15 39 28 34 9 -4 55 -14 102 -22z"/>
<path d="M9816 8405 c-9 -26 -7 -32 5 -12 6 10 9 21 6 23 -2 3 -7 -2 -11 -11z"/>
<path d="M5888 7218 c-44 -25 -45 -29 -54 -112 -16 -152 22 -236 105 -236 44
0 69 20 98 75 21 39 29 162 14 207 -25 76 -97 105 -163 66z"/>
<path d="M6963 7229 c-53 -15 -67 -48 -71 -167 -3 -61 0 -120 7 -143 14 -47
53 -79 96 -79 70 0 108 67 121 211 8 95 -6 143 -50 170 -34 21 -54 22 -103 8z"/>
<path d="M8970 6249 c14 -6 72 -12 130 -14 l105 -3 -95 7 c-52 4 -111 11 -130
14 -31 6 -32 6 -10 -4z"/>
<path d="M2810 5976 c0 -2 8 -10 18 -17 15 -13 16 -12 3 4 -13 16 -21 21 -21
13z"/>
</g>
</svg>
